<?xml version="1.0" encoding="UTF-8"?>
<svg width="24px" height="25px" viewBox="0 0 24 25" version="1.1" xmlns="http://www.w3.org/2000/svg" xmlns:xlink="http://www.w3.org/1999/xlink">
    <title>_Icons / 16px Social / Linkedin</title>
    <g id="UI---Batch-1" stroke="none" stroke-width="1" fill="none" fill-rule="evenodd">
        <g id="Mobile-/-Shop-Menu" transform="translate(-79.000000, -774.000000)">
            <rect fill="#FFFFFF" x="0" y="0" width="414" height="896"></rect>
            <rect id="Rectangle-Copy" fill="#F7F6F5" x="0" y="-4.54747351e-13" width="336" height="896"></rect>
            <g id="Bottom" transform="translate(25.000000, 774.500000)" fill="#000000" opacity="0.5">
                <g id="Social" transform="translate(2.000000, 0.000000)">
                    <g id="Group" transform="translate(56.000000, 4.000000)" opacity="0.735281808">
                        <g id="_Icons-/-16px-Social-/-Linkedin">
                            <path d="M9.40908145,-3.99884133 C11.419289,-3.99429183 11.8808434,-3.97658784 12.9474497,-3.92792169 C14.2247098,-3.86966522 15.0970326,-3.66679169 15.860321,-3.37012667 C16.6494271,-3.06350613 17.3186382,-2.65318621 17.9858011,-1.98607099 C18.6529163,-1.31890813 19.0632362,-0.649697011 19.3699044,0.139409076 C19.6665218,0.902697494 19.8693953,1.77502031 19.9276518,3.0522804 C19.937385,3.26560166 19.9458798,3.45472085 19.9532785,3.63686782 L19.969004,4.06945558 C19.9885072,4.68831859 19.9966579,5.38592454 19.9990554,6.83947594 L19.9996718,7.38498554 C19.9998037,7.57802012 19.9998651,7.78262033 19.9998651,7.99988887 L19.9998179,8.31642367 C19.999786,8.41886013 19.9997377,8.51826739 19.9996718,8.6147833 L19.9990554,9.16028517 C19.9953887,11.3833328 19.9782646,11.8381791 19.9276518,12.9474497 C19.8693953,14.2247098 19.6665218,15.0970326 19.3699044,15.860321 C19.0632362,16.6494271 18.6529163,17.3186382 17.9858011,17.9858011 C17.3186382,18.6529163 16.6494271,19.0632362 15.860321,19.3699044 C15.0970326,19.6665218 14.2247098,19.8693953 12.9474497,19.9276518 C11.8381791,19.9782646 11.3833328,19.9953887 9.16028517,19.9990554 L8.6147833,19.9996718 C8.42175148,19.9998037 8.21715424,19.9998651 7.99988887,19.9998651 L7.68334947,19.9998179 C7.58091153,19.999786 7.48150283,19.9997377 7.38498554,19.9996718 L6.83947594,19.9990554 C5.38592454,19.9966579 4.68831859,19.9885072 4.06945558,19.969004 L3.63686782,19.9532785 C3.45472085,19.9458798 3.26560166,19.937385 3.0522804,19.9276518 C1.77502031,19.8693953 0.902697494,19.6665218 0.139409076,19.3699044 C-0.649697011,19.0632362 -1.31890813,18.6529163 -1.98607099,17.9858011 C-2.65318621,17.3186382 -3.06350613,16.6494271 -3.37012667,15.860321 C-3.66679169,15.0970326 -3.86966522,14.2247098 -3.92792169,12.9474497 C-3.97658784,11.8808434 -3.99429183,11.419289 -3.99884133,9.40908145 L-3.99884133,6.59067622 C-3.99574767,5.22371632 -3.98657137,4.57286642 -3.96571314,3.96092402 L-3.95354838,3.63686782 C-3.94614966,3.45472085 -3.93765492,3.26560166 -3.92792169,3.0522804 C-3.86966522,1.77502031 -3.66679169,0.902697494 -3.37012667,0.139409076 C-3.06350613,-0.649697011 -2.65318621,-1.31890813 -1.98607099,-1.98607099 C-1.31890813,-2.65318621 -0.649697011,-3.06350613 0.139409076,-3.37012667 C0.902697494,-3.66679169 1.77502031,-3.86966522 3.0522804,-3.92792169 C3.26560166,-3.93765492 3.45472085,-3.94614966 3.63686782,-3.95354838 L3.96092402,-3.96571314 C4.57286642,-3.98657137 5.22371632,-3.99574767 6.59067622,-3.99884133 Z M8.88009432,-1.83757614 L7.11967052,-1.83757614 C4.71096748,-1.83507335 4.28965171,-1.81996144 3.1508353,-1.76800219 C1.98084715,-1.71465203 1.34545622,-1.51916178 0.922608538,-1.35482422 C0.362479449,-1.1371365 -0.0372657082,-0.877102085 -0.45716008,-0.45716008 C-0.877102085,-0.0372657082 -1.1371365,0.362479449 -1.35482422,0.922608538 C-1.51916178,1.34545622 -1.71465203,1.98084715 -1.76800219,3.1508353 C-1.81996144,4.28965171 -1.83507335,4.71096748 -1.83757614,7.11967052 L-1.83757614,8.88009432 C-1.83507335,11.2887626 -1.81996144,11.7100784 -1.76800219,12.8488948 C-1.71465203,14.018883 -1.51916178,14.6542739 -1.35482422,15.0771216 C-1.1371365,15.6372507 -0.877054451,16.0369958 -0.45716008,16.4568902 C-0.0372657082,16.8768322 0.362479449,17.1368666 0.922608538,17.3545543 C1.34545622,17.5188919 1.98084715,17.7143821 3.1508353,17.7677323 C3.36170341,17.7773544 3.5479672,17.7857128 3.72680581,17.7929616 L3.93894751,17.8011373 C4.60640658,17.8254027 5.26587274,17.8345332 6.85999981,17.836975 L7.68872871,17.8376647 L7.68872871,17.8376647 L7.99988887,17.8377068 C8.10670034,17.8377068 8.2103731,17.8376932 8.31104457,17.8376647 L9.13976351,17.836975 C11.3211784,17.8336335 11.7524219,17.8177671 12.8488948,17.7677323 C14.018883,17.7143821 14.6542739,17.5188919 15.0771216,17.3545543 C15.6372507,17.1368666 16.0369958,16.8768322 16.4568902,16.4568902 C16.8768322,16.0369958 17.1368666,15.6372507 17.3545543,15.0771216 C17.5188919,14.6542739 17.7143821,14.018883 17.7677323,12.8488948 C17.8177671,11.7522568 17.8336335,11.3209554 17.836975,9.13968314 L17.8376647,8.3110217 L17.8376647,8.3110217 L17.8377068,7.99988887 C17.8377068,7.89308375 17.8376932,7.78941707 17.8376647,7.68875143 L17.836975,6.86007797 C17.8345332,5.26604865 17.8254027,4.60656177 17.8011373,3.93903613 L17.7929616,3.72687196 C17.7857128,3.54801351 17.7773544,3.36172723 17.7677323,3.1508353 C17.7143821,1.98084715 17.5188919,1.34545622 17.3545543,0.922608538 C17.1368666,0.362479449 16.8768322,-0.0372657082 16.4568902,-0.45716008 C16.0369958,-0.877102085 15.6372507,-1.1371365 15.0771216,-1.35482422 C14.6542739,-1.51916178 14.018883,-1.71465203 12.8488948,-1.76800219 C11.7100784,-1.81996144 11.2887626,-1.83507335 8.88009432,-1.83757614 Z M7.99988887,1.83770675 C11.403153,1.83770675 14.1620234,4.59657711 14.1620234,7.99988887 C14.1620234,11.403153 11.403153,14.1620234 7.99988887,14.1620234 C4.59657711,14.1620234 1.83770675,11.403153 1.83770675,7.99988887 C1.83770675,4.59657711 4.59657711,1.83770675 7.99988887,1.83770675 Z M7.99988887,3.99986505 C10.2090144,3.99986505 11.9998651,5.79071574 11.9998651,7.99988887 C11.9998651,10.2090144 10.2090144,11.9998651 7.99988887,11.9998651 C5.79071574,11.9998651 3.99986505,10.2090144 3.99986505,7.99988887 C3.99986505,5.79071574 5.79071574,3.99986505 7.99988887,3.99986505 Z M14.4054811,0.154223273 C15.2007796,0.154223273 15.8455068,0.798950479 15.8455068,1.594249 C15.8455068,2.38954751 15.2007796,3.03422708 14.4054811,3.03422708 C13.6102302,3.03422708 12.965503,2.38954751 12.965503,1.594249 C12.965503,0.798950479 13.6102302,0.154223273 14.4054811,0.154223273 Z" id="Icon"></path>
                        </g>
                    </g>
                </g>
            </g>
        </g>
    </g>
</svg>
