<?xml version="1.0" encoding="UTF-8"?>
<svg width="46px" height="45px" viewBox="0 0 46 45" version="1.1" xmlns="http://www.w3.org/2000/svg" xmlns:xlink="http://www.w3.org/1999/xlink">
    <title>Group 5</title>
    <defs>
        <rect id="path-1" x="0.5" y="-2.27373675e-13" width="329" height="454.765766" rx="8"></rect>
        <polygon id="path-3" points="3.29130002e-05 0.175557108 45.9015335 0.175557108 45.9015335 42.5925926 3.29130002e-05 42.5925926"></polygon>
    </defs>
    <g id="UI---Batch-1" stroke="none" stroke-width="1" fill="none" fill-rule="evenodd">
        <g id="Desktop-/-Home-Scrolled" transform="translate(-697.000000, -17.000000)">
            <g id="Group-5" transform="translate(697.000000, 17.500000)">
                <polygon id="Fill-1" fill="#000000" points="24.8393942 22.7389358 24.8409086 18.9629605 21.0651226 18.9614461 21.0636082 22.7374214 17.2876329 22.735907 17.2863078 26.5118823 21.0620938 26.5132074 21.0605794 30.2891827 24.8363654 30.2906971 24.8378798 26.5147218 28.6136658 26.5162362 28.6151802 22.7404502"></polygon>
                <g id="Group-4" transform="translate(0.000000, 0.013819)">
                    <mask id="mask-4" fill="white">
                        <use xlink:href="#path-3"></use>
                    </mask>
                    <g id="Clip-3"></g>
                    <path d="M3.1458321,37.9279276 L22.9640708,0.803845267 L42.7529679,37.9432609 L3.1458321,37.9279276 Z M45.7236593,33.2857136 L27.9892395,0.92897284 C27.7357663,0.466322634 27.2504,0.178775309 26.7230091,0.178586008 L19.2058897,0.175557108 C18.6784988,0.175557108 18.1927539,0.462536626 17.9389021,0.92480823 L0.178358848,33.26773 C-0.0688674897,33.7180757 -0.0584559671,34.2659111 0.205996708,34.7066025 L4.50898436,41.8774914 C4.77002963,42.3125037 5.24006255,42.5786601 5.74719835,42.5788494 L40.1472477,42.5926684 C40.6545728,42.5926684 41.1247951,42.3268905 41.3860296,41.8922568 L45.6950749,34.7243967 C45.9597169,34.2838947 45.9706963,33.7360593 45.7236593,33.2857136 L45.7236593,33.2857136 Z" id="Fill-2" fill="#000000" mask="url(#mask-4)"></path>
                </g>
            </g>
        </g>
    </g>
</svg>
